<svg xmlns="http://www.w3.org/2000/svg" xmlns:xlink="http://www.w3.org/1999/xlink" width="100%" height="100%" color-interpolation-filters="sRGB" preserveAspectRatio="xMidYMid meet" version="1.0" viewBox="0 0 340 250" style="margin:auto"><rect width="100%" height="100%" x="0" y="0" fill="#0b2948" fill-opacity="1" class="background"/><rect width="100%" height="100%" x="0" y="0" fill="url(#watermark)" fill-opacity="1" class="watermarklayer"/><g fill="#fff" class="icon-text-wrapper icon-svg-group iconsvg"><g class="iconsvg-imagesvg"><g transform="translate(80.55999755859375,78.42200469970703) translate(59.44000244140625,0)"><rect width="60" height="65.596" x="0" y="0" fill="#fff" fill-opacity="0" stroke-width="2" class="image-rect"/><svg width="60" height="65.596" x="0" y="0" class="image-svg-svg primary" filtersec="colorsb2991397692" style="overflow:visible"><svg xmlns="http://www.w3.org/2000/svg" viewBox="-0.008 0.002 145.158 158.696"><path fill="#85d014" d="M112.6 39.53c-4.78-2.65-9.55-5.31-14.33-7.94Q87.13 25.47 76 19.38a7.19 7.19 0 0 0-.75-.34c-2.81-1.34-2.14-1.62-5.4.19-7.57 4.19-15.18 8.31-22.77 12.48C37.17 37.15 27.3 42.6 17.38 48a2.73 2.73 0 0 0-1.6 2.73q.06 37.43 0 74.85c0 2.22-.06 2.24-2 1.18-2.12-1.16-4.23-2.32-6.32-3.52s-4.34-2.48-6.54-3.66A1.55 1.55 0 0 1 0 118V40.48A1.47 1.47 0 0 1 .88 39q17.88-9.78 35.72-19.59Q53.94 9.9 71.26.38a2.24 2.24 0 0 1 2.49 0q23.48 12.92 47 25.78l9.68 5.33c.15.69-.41.87-.83 1.1-4.58 2.45-9.1 5-13.61 7.54-1.38.76-2.36.11-3.39-.6z"/><path fill="#1a97f2" d="M72.32 72.53c2.59-1.11 5-2.61 7.44-4q16.88-9.29 33.73-18.62l31.24-17.26a2 2 0 0 1 .39 1.57v15.72a1.41 1.41 0 0 1-.95 1.35c-3 1.62-6 3.29-9 4.93Q124.78 62 114.34 67.7q-8 4.41-16.08 8.82t-16.18 8.87l-8.25 4.53c-.47.25-.93.64-1.55.42-.2-.06-.46-.06-.39-.4a8 8 0 0 0 .28-2.34V73.93a2.79 2.79 0 0 1 .15-1.4zM72.31 140.94a34.58 34.58 0 0 0 5-2.63q30.94-17.06 61.87-34.15l5.51-3.06a1.7 1.7 0 0 1 .39 1.44v15.6a1.58 1.58 0 0 1-1 1.6c-2.78 1.52-5.54 3.1-8.34 4.6-4.51 2.42-9 4.92-13.48 7.37q-9.51 5.21-19 10.44c-7.75 4.27-15.54 8.48-23.28 12.78-2.08 1.16-4.18 2.27-6.28 3.39-.49.26-1.06.74-1.52-.08a5.93 5.93 0 0 1-.14-1.78v-14.61a1.22 1.22 0 0 1 .27-.91zM72.07 124.42a.14.14 0 0 1 0-.14c.15-5.38 0-10.76.07-16.14a2.15 2.15 0 0 1 .18-1.39c2.65-1.17 5.11-2.7 7.64-4.09q18.93-10.43 37.83-20.89l26-14.41a3.82 3.82 0 0 0 .48-.34c.41-.32.54 0 .68.3a2.62 2.62 0 0 1 .11 1.18v15a2.13 2.13 0 0 1-1.25 2.16c-3 1.67-6 3.28-9 4.93q-10.3 5.73-20.67 11.36L95.86 112q-11 6-22 12.07c-.58.34-1.11.82-1.79.35z"/><path fill="#084599" d="M72.32 72.53a2.52 2.52 0 0 1 .2 1.27v15c0 .49.17 1.09-.62 1.16l-23.11-13.8c-3.07-1.83-6.12-3.69-9.2-5.5a1.62 1.62 0 0 1-.92-1.61V53.56c0-.79.1-1.15 1-.63Q56 62.76 72.32 72.53zM72.34 106.75a11.36 11.36 0 0 1 .16 1.25v15c0 .44.18 1-.42 1.24l-21-12.55c-3.75-2.24-7.48-4.5-11.24-6.71a2 2 0 0 1-1.14-2v-15c0-.39-.19-.91.15-1.13s.78.24 1.13.45zM72.31 140.94a5.17 5.17 0 0 1 .21 1.52v16.08c-.41.28-.63-.13-.93-.24l-15.8-9.52q-8-4.82-16.05-9.58a1.91 1.91 0 0 1-1.06-1.9v-15.25c0-.89.14-1.19 1-.64q16.32 9.78 32.63 19.53z"/></svg></svg></g></g><g><g class="tp-name iconsvg-namesvg" data-gra="path-name"><g><g><path d="M16.81-9.24L16.81-9.24Q16.86-8.9 16.89-8.56 16.92-8.23 16.92-7.89L16.92-7.89Q16.92-6.2 16.28-4.71 15.64-3.21 14.53-2.1 13.42-0.99 11.92-0.35 10.43 0.29 8.74 0.29L8.74 0.29Q7.06 0.29 5.56-0.35 4.07-0.99 2.96-2.1 1.84-3.21 1.2-4.71 0.56-6.2 0.56-7.89L0.56-7.89Q0.56-9.57 1.2-11.07 1.84-12.56 2.96-13.68 4.07-14.79 5.56-15.43 7.06-16.07 8.74-16.07L8.74-16.07Q10.45-16.07 11.93-15.43 13.42-14.79 14.52-13.66L14.52-13.66 12.63-11.75Q11.84-12.54 10.84-12.96 9.84-13.37 8.74-13.37L8.74-13.37Q7.64-13.37 6.65-12.96 5.66-12.54 4.88-11.75L4.88-11.75Q4.09-10.97 3.67-9.98 3.26-8.99 3.26-7.89L3.26-7.89Q3.26-6.79 3.67-5.79 4.09-4.79 4.88-4L4.88-4Q5.66-3.21 6.65-2.81 7.64-2.4 8.74-2.4L8.74-2.4Q9.84-2.4 10.84-2.81 11.84-3.21 12.63-4L12.63-4Q13.69-5.1 14.07-6.54L14.07-6.54 6.79-6.54 7.46-9.24 16.81-9.24ZM27.94-15.73L27.94-15.73 27.94-13.04 23.33-13.04 23.33 0 20.63 0 20.63-13.04 16-13.04 16-15.73 20.63-15.73 23.33-15.73 27.94-15.73ZM39.58-15.73L42.27-15.73 42.27-6.29Q42.27-4.92 41.76-3.72 41.24-2.52 40.34-1.62 39.44-0.72 38.24-0.2 37.04 0.31 35.67 0.31L35.67 0.31Q34.3 0.31 33.09-0.2 31.89-0.72 30.99-1.62 30.09-2.52 29.58-3.72 29.06-4.92 29.06-6.29L29.06-6.29 29.06-15.73 31.76-15.73 31.76-6.29Q31.76-5.51 32.05-4.8 32.34-4.09 32.9-3.53L32.9-3.53Q33.46-2.97 34.17-2.67 34.88-2.38 35.67-2.38L35.67-2.38Q37.29-2.38 38.43-3.53L38.43-3.53Q38.99-4.09 39.29-4.8 39.58-5.51 39.58-6.29L39.58-6.29 39.58-15.73ZM59.96-4L61.87-2.11Q60.75-0.99 59.27-0.35 57.78 0.29 56.07 0.29L56.07 0.29Q54.39 0.29 52.89-0.35 51.4-0.99 50.29-2.1 49.17-3.21 48.53-4.71 47.89-6.2 47.89-7.89L47.89-7.89Q47.89-9.57 48.53-11.07 49.17-12.56 50.29-13.68 51.4-14.79 52.89-15.43 54.39-16.07 56.07-16.07L56.07-16.07Q57.78-16.07 59.27-15.43 60.75-14.79 61.87-13.66L61.87-13.66 59.96-11.75Q59.18-12.54 58.19-12.96 57.2-13.37 56.07-13.37L56.07-13.37Q54.97-13.37 53.98-12.96 53-12.54 52.21-11.75L52.21-11.75Q51.42-10.97 51.01-9.98 50.59-8.99 50.59-7.89L50.59-7.89Q50.59-6.79 51.01-5.79 51.42-4.79 52.21-4L52.21-4Q53-3.21 53.98-2.81 54.97-2.4 56.07-2.4L56.07-2.4Q57.2-2.4 58.19-2.81 59.18-3.21 59.96-4L59.96-4ZM71.72-11.26L74.41-11.26 74.41 0 71.72 0 71.72-5.62Q71.72-6.97 70.77-7.91L70.77-7.91Q69.83-8.86 68.48-8.86L68.48-8.86Q67.83-8.86 67.23-8.61 66.64-8.36 66.19-7.91L66.19-7.91Q65.24-6.97 65.24-5.62L65.24-5.62Q65.24-4.29 66.19-3.35L66.19-3.35Q66.64-2.88 67.23-2.64 67.83-2.4 68.48-2.4L68.48-2.4Q69.15-2.4 69.69-2.63L69.69-2.63 70.66-0.22Q69.63 0.29 68.26 0.29L68.26 0.29Q67.02 0.29 65.97-0.17 64.93-0.63 64.17-1.44 63.4-2.25 62.97-3.33 62.55-4.41 62.55-5.62L62.55-5.62Q62.55-6.85 62.97-7.93 63.4-9.01 64.17-9.82 64.93-10.63 65.97-11.09 67.02-11.55 68.26-11.55L68.26-11.55Q69.36-11.55 70.21-11.21 71.07-10.88 71.72-10.36L71.72-10.36 71.72-11.26ZM87.92-11.55L87.92-11.55Q88.87-11.55 89.57-11.19 90.28-10.83 90.73-10.2 91.18-9.57 91.4-8.74 91.63-7.91 91.63-6.94L91.63-6.94 91.63 0 88.93 0 88.93-6.94Q88.93-7.73 88.37-8.29L88.37-8.29Q87.83-8.86 87.02-8.86L87.02-8.86Q86.21-8.86 85.67-8.29L85.67-8.29Q85.11-7.73 85.11-6.94L85.11-6.94 85.11 0 82.41 0 82.41-6.94Q82.41-7.73 81.85-8.29L81.85-8.29Q81.58-8.59 81.23-8.72 80.89-8.86 80.5-8.86L80.5-8.86Q79.67-8.86 79.13-8.29L79.13-8.29Q78.57-7.73 78.57-6.94L78.57-6.94 78.57 0 75.87 0 75.87-11.24 78.57-11.24 78.57-10.25Q79.22-10.81 79.94-11.18 80.66-11.55 81.4-11.55L81.4-11.55Q82.41-11.55 83.07-11.15 83.72-10.74 84.24-10.02L84.24-10.02Q84.84-10.68 85.81-11.11 86.77-11.55 87.92-11.55ZM99.25-11.55L99.25-11.55Q100.48-11.55 101.53-11.09 102.57-10.63 103.34-9.82 104.1-9.01 104.53-7.93 104.96-6.85 104.96-5.62L104.96-5.62Q104.96-4.41 104.53-3.33 104.1-2.25 103.34-1.44 102.57-0.63 101.53-0.17 100.48 0.29 99.25 0.29L99.25 0.29Q97.88 0.29 96.84-0.22L96.84-0.22 97.81-2.63Q98.35-2.4 99.02-2.4L99.02-2.4Q99.68-2.4 100.26-2.64 100.84-2.88 101.32-3.35L101.32-3.35Q102.26-4.29 102.26-5.62L102.26-5.62Q102.26-6.97 101.32-7.91L101.32-7.91Q100.33-8.86 99.02-8.86L99.02-8.86Q97.68-8.86 96.73-7.91L96.73-7.91Q95.79-6.97 95.79-5.62L95.79-5.62 95.79-0.9 95.79 4.49 93.09 4.49 93.09-11.26 95.79-11.26 95.79-10.36Q96.44-10.88 97.29-11.21 98.15-11.55 99.25-11.55ZM113.92-11.24L116.62-11.24 116.62 0 113.92 0 113.92-0.85Q113.32-0.34 112.55-0.01 111.79 0.31 110.85 0.31L110.85 0.31Q109.74 0.31 108.85-0.1 107.95-0.52 107.31-1.24 106.67-1.96 106.32-2.92 105.97-3.89 105.97-4.99L105.97-4.99 105.97-11.24 108.67-11.24 108.67-4.99Q108.67-3.93 109.45-3.15L109.45-3.15Q110.22-2.38 111.29-2.38L111.29-2.38Q112.4-2.38 113.16-3.15L113.16-3.15Q113.92-3.91 113.92-4.99L113.92-4.99 113.92-11.24ZM122.46-6.97L122.46-6.97Q122.73-6.9 123.36-6.65 123.99-6.41 124.66-5.97 125.32-5.53 125.81-4.88 126.31-4.23 126.31-3.33L126.31-3.33Q126.31-2.54 126.05-1.89 125.79-1.24 125.3-0.74 124.8-0.25 124.08 0.02 123.36 0.29 122.46 0.29L122.46 0.29Q121.09 0.29 119.91-0.2 118.73-0.7 118.01-1.42L118.01-1.42 119.88-3.28Q120.46-2.58 121.13-2.38 121.79-2.18 122.24-2.18L122.24-2.18Q122.94-2.18 123.27-2.45 123.61-2.72 123.61-3.1L123.61-3.1Q123.61-3.37 123.39-3.57 123.16-3.78 122.86-3.91 122.55-4.05 122.24-4.12 121.93-4.2 121.72-4.27L121.72-4.27Q121.45-4.36 120.81-4.58 120.17-4.81 119.51-5.24 118.85-5.66 118.35-6.32 117.86-6.97 117.86-7.89L117.86-7.89Q117.86-8.83 118.18-9.52 118.51-10.2 119.05-10.65 119.59-11.1 120.28-11.32 120.98-11.53 121.72-11.53L121.72-11.53Q122.87-11.53 123.67-11.26 124.46-10.99 124.98-10.68L124.98-10.68Q125.57-10.29 125.97-9.82L125.97-9.82 124.08-7.93Q123.63-8.52 123.09-8.79 122.55-9.06 121.95-9.06L121.95-9.06Q121.48-9.06 121.02-8.83 120.55-8.61 120.55-8.11L120.55-8.11Q120.55-7.84 120.76-7.65 120.96-7.46 121.25-7.34 121.54-7.21 121.87-7.12 122.2-7.03 122.46-6.97ZM139.39-4L141.3-2.11Q140.17-0.99 138.69-0.35 137.21 0.29 135.5 0.29L135.5 0.29Q133.81 0.29 132.32-0.35 130.83-0.99 129.71-2.1 128.6-3.21 127.96-4.71 127.32-6.2 127.32-7.89L127.32-7.89Q127.32-9.57 127.96-11.07 128.6-12.56 129.71-13.68 130.83-14.79 132.32-15.43 133.81-16.07 135.5-16.07L135.5-16.07Q137.21-16.07 138.69-15.43 140.17-14.79 141.3-13.66L141.3-13.66 139.39-11.75Q138.6-12.54 137.61-12.96 136.62-13.37 135.5-13.37L135.5-13.37Q134.4-13.37 133.41-12.96 132.42-12.54 131.63-11.75L131.63-11.75Q130.85-10.97 130.43-9.98 130.02-8.99 130.02-7.89L130.02-7.89Q130.02-6.79 130.43-5.79 130.85-4.79 131.63-4L131.63-4Q132.42-3.21 133.41-2.81 134.4-2.4 135.5-2.4L135.5-2.4Q136.62-2.4 137.61-2.81 138.6-3.21 139.39-4L139.39-4ZM145.01 0L145.01 0 142.31 0 142.31-15.73 145.01-15.73 145.01 0ZM154.31-11.24L157.01-11.24 157.01 0 154.31 0 154.31-0.85Q153.7-0.34 152.94-0.01 152.18 0.31 151.23 0.31L151.23 0.31Q150.13 0.31 149.23-0.1 148.33-0.52 147.69-1.24 147.05-1.96 146.7-2.92 146.36-3.89 146.36-4.99L146.36-4.99 146.36-11.24 149.05-11.24 149.05-4.99Q149.05-3.93 149.84-3.15L149.84-3.15Q150.6-2.38 151.68-2.38L151.68-2.38Q152.78-2.38 153.55-3.15L153.55-3.15Q154.31-3.91 154.31-4.99L154.31-4.99 154.31-11.24ZM164.63-11.53L164.63-11.53Q165.86-11.53 166.91-11.07 167.95-10.61 168.72-9.8 169.48-8.99 169.91-7.91 170.34-6.83 170.34-5.6L170.34-5.6Q170.34-4.38 169.91-3.3 169.48-2.22 168.72-1.42 167.95-0.61 166.91-0.15 165.86 0.31 164.63 0.31L164.63 0.31Q163.3 0.31 162.22-0.2L162.22-0.2 163.19-2.61Q163.73-2.38 164.4-2.38L164.4-2.38Q165.77-2.38 166.69-3.33L166.69-3.33Q167.64-4.27 167.64-5.6L167.64-5.6Q167.64-6.94 166.69-7.89L166.69-7.89Q165.75-8.83 164.4-8.83L164.4-8.83Q163.1-8.83 162.11-7.89L162.11-7.89Q161.17-6.94 161.17-5.6L161.17-5.6 161.17-0.88 161.17 0.02 158.47 0.02 158.47-15.73 161.17-15.73 161.17-10.34Q161.82-10.86 162.67-11.19 163.53-11.53 164.63-11.53ZM175.59-6.97L175.59-6.97Q175.86-6.9 176.49-6.65 177.12-6.41 177.79-5.97 178.45-5.53 178.94-4.88 179.44-4.23 179.44-3.33L179.44-3.33Q179.44-2.54 179.18-1.89 178.92-1.24 178.43-0.74 177.93-0.25 177.21 0.02 176.49 0.29 175.59 0.29L175.59 0.29Q174.22 0.29 173.04-0.2 171.86-0.7 171.14-1.42L171.14-1.42 173.01-3.28Q173.59-2.58 174.26-2.38 174.92-2.18 175.37-2.18L175.37-2.18Q176.07-2.18 176.4-2.45 176.74-2.72 176.74-3.1L176.74-3.1Q176.74-3.37 176.52-3.57 176.29-3.78 175.99-3.91 175.68-4.05 175.37-4.12 175.06-4.2 174.85-4.27L174.85-4.27Q174.58-4.36 173.94-4.58 173.3-4.81 172.64-5.24 171.98-5.66 171.48-6.32 170.99-6.97 170.99-7.89L170.99-7.89Q170.99-8.83 171.31-9.52 171.64-10.2 172.18-10.65 172.72-11.1 173.41-11.32 174.11-11.53 174.85-11.53L174.85-11.53Q176-11.53 176.8-11.26 177.6-10.99 178.11-10.68L178.11-10.68Q178.7-10.29 179.1-9.82L179.1-9.82 177.21-7.93Q176.76-8.52 176.22-8.79 175.68-9.06 175.08-9.06L175.08-9.06Q174.61-9.06 174.15-8.83 173.68-8.61 173.68-8.11L173.68-8.11Q173.68-7.84 173.89-7.65 174.09-7.46 174.38-7.34 174.67-7.21 175-7.12 175.33-7.03 175.59-6.97Z" transform="translate(80.55999755859375,78.42200469970703) translate(0,72.59599304199219) scale(1) translate(-0.5600000023841858, 16.06999969482422)"/></g></g></g></g></g></svg>