<svg xmlns="http://www.w3.org/2000/svg" xmlns:xlink="http://www.w3.org/1999/xlink" width="100%" height="100%" color-interpolation-filters="sRGB" preserveAspectRatio="xMidYMid meet" version="1.0" viewBox="0 0 340 250" style="margin:auto"><rect width="100%" height="100%" x="0" y="0" fill="#0b2948" fill-opacity="1" class="background"/><rect width="100%" height="100%" x="0" y="0" fill="url(#watermark)" fill-opacity="1" class="watermarklayer"/><g fill="#fff" class="icon-text-wrapper icon-svg-group iconsvg"><g class="iconsvg-imagesvg"><g transform="translate(80.55999755859375,78.42200469970703) translate(59.44000244140625,0)"><rect width="60" height="65.596" x="0" y="0" fill="#fff" fill-opacity="0" stroke-width="2" class="image-rect"/><svg width="60" height="65.596" x="0" y="0" class="image-svg-svg primary" filtersec="colorsb2991397692" style="overflow:visible"><svg xmlns="http://www.w3.org/2000/svg" viewBox="-0.008 0.002 145.158 158.696"><path fill="#85d014" d="M112.6 39.53c-4.78-2.65-9.55-5.31-14.33-7.94Q87.13 25.47 76 19.38a7.19 7.19 0 0 0-.75-.34c-2.81-1.34-2.14-1.62-5.4.19-7.57 4.19-15.18 8.31-22.77 12.48C37.17 37.15 27.3 42.6 17.38 48a2.73 2.73 0 0 0-1.6 2.73q.06 37.43 0 74.85c0 2.22-.06 2.24-2 1.18-2.12-1.16-4.23-2.32-6.32-3.52s-4.34-2.48-6.54-3.66A1.55 1.55 0 0 1 0 118V40.48A1.47 1.47 0 0 1 .88 39q17.88-9.78 35.72-19.59Q53.94 9.9 71.26.38a2.24 2.24 0 0 1 2.49 0q23.48 12.92 47 25.78l9.68 5.33c.15.69-.41.87-.83 1.1-4.58 2.45-9.1 5-13.61 7.54-1.38.76-2.36.11-3.39-.6z"/><path fill="#1a97f2" d="M72.32 72.53c2.59-1.11 5-2.61 7.44-4q16.88-9.29 33.73-18.62l31.24-17.26a2 2 0 0 1 .39 1.57v15.72a1.41 1.41 0 0 1-.95 1.35c-3 1.62-6 3.29-9 4.93Q124.78 62 114.34 67.7q-8 4.41-16.08 8.82t-16.18 8.87l-8.25 4.53c-.47.25-.93.64-1.55.42-.2-.06-.46-.06-.39-.4a8 8 0 0 0 .28-2.34V73.93a2.79 2.79 0 0 1 .15-1.4zM72.31 140.94a34.58 34.58 0 0 0 5-2.63q30.94-17.06 61.87-34.15l5.51-3.06a1.7 1.7 0 0 1 .39 1.44v15.6a1.58 1.58 0 0 1-1 1.6c-2.78 1.52-5.54 3.1-8.34 4.6-4.51 2.42-9 4.92-13.48 7.37q-9.51 5.21-19 10.44c-7.75 4.27-15.54 8.48-23.28 12.78-2.08 1.16-4.18 2.27-6.28 3.39-.49.26-1.06.74-1.52-.08a5.93 5.93 0 0 1-.14-1.78v-14.61a1.22 1.22 0 0 1 .27-.91zM72.07 124.42a.14.14 0 0 1 0-.14c.15-5.38 0-10.76.07-16.14a2.15 2.15 0 0 1 .18-1.39c2.65-1.17 5.11-2.7 7.64-4.09q18.93-10.43 37.83-20.89l26-14.41a3.82 3.82 0 0 0 .48-.34c.41-.32.54 0 .68.3a2.62 2.62 0 0 1 .11 1.18v15a2.13 2.13 0 0 1-1.25 2.16c-3 1.67-6 3.28-9 4.93q-10.3 5.73-20.67 11.36L95.86 112q-11 6-22 12.07c-.58.34-1.11.82-1.79.35z"/><path fill="#084599" d="M72.32 72.53a2.52 2.52 0 0 1 .2 1.27v15c0 .49.17 1.09-.62 1.16l-23.11-13.8c-3.07-1.83-6.12-3.69-9.2-5.5a1.62 1.62 0 0 1-.92-1.61V53.56c0-.79.1-1.15 1-.63Q56 62.76 72.32 72.53zM72.34 106.75a11.36 11.36 0 0 1 .16 1.25v15c0 .44.18 1-.42 1.24l-21-12.55c-3.75-2.24-7.48-4.5-11.24-6.71a2 2 0 0 1-1.14-2v-15c0-.39-.19-.91.15-1.13s.78.24 1.13.45zM72.31 140.94a5.17 5.17 0 0 1 .21 1.52v16.08c-.41.28-.63-.13-.93-.24l-15.8-9.52q-8-4.82-16.05-9.58a1.91 1.91 0 0 1-1.06-1.9v-15.25c0-.89.14-1.19 1-.64q16.32 9.78 32.63 19.53z"/></svg></svg></g></g></g></svg>